<svg width="387" height="48" viewBox="0 0 387 48" fill="none" xmlns="http://www.w3.org/2000/svg">
<path d="M0.1 1.2H13.15C15.4833 1.2 17.55 1.68333 19.35 2.65C21.1833 3.61666 22.6 4.96666 23.6 6.7C24.6 8.4 25.1 10.3333 25.1 12.5C25.1 14.8 24.3667 16.85 22.9 18.65C21.4667 20.4167 19.65 21.7 17.45 22.5L17.4 22.85L27 36.6V37H19.25L10 23.55H6.85V37H0.1V1.2ZM13.1 17.35C14.6333 17.35 15.8833 16.8833 16.85 15.95C17.8167 15.0167 18.3 13.8333 18.3 12.4C18.3 11.0333 17.8333 9.86666 16.9 8.9C16 7.93333 14.7667 7.45 13.2 7.45H6.85V17.35H13.1ZM48.7395 37.8C45.2728 37.8 42.1061 36.9833 39.2395 35.35C36.3728 33.6833 34.1061 31.4333 32.4395 28.6C30.8061 25.7333 29.9895 22.5667 29.9895 19.1C29.9895 15.6333 30.8061 12.4833 32.4395 9.65C34.1061 6.78333 36.3728 4.53333 39.2395 2.9C42.1061 1.23333 45.2728 0.399997 48.7395 0.399997C54.1395 0.399997 58.6061 2.35 62.1395 6.25L57.3895 10.85C55.0895 8.15 52.2228 6.8 48.7895 6.8C46.5561 6.8 44.5228 7.31667 42.6895 8.35C40.8561 9.35 39.4061 10.7833 38.3395 12.65C37.3061 14.5167 36.7895 16.6667 36.7895 19.1C36.7895 21.5333 37.3061 23.6833 38.3395 25.55C39.4061 27.4167 40.8561 28.8667 42.6895 29.9C44.5228 30.9 46.5561 31.4 48.7895 31.4C52.5561 31.4 55.7061 29.8333 58.2395 26.7L63.0395 31.25C61.2728 33.3833 59.1728 35.0167 56.7395 36.15C54.3395 37.25 51.6728 37.8 48.7395 37.8ZM85.2617 37.8C81.7617 37.8 78.5784 36.9833 75.7117 35.35C72.8784 33.6833 70.6451 31.4167 69.0117 28.55C67.3784 25.6833 66.5617 22.5333 66.5617 19.1C66.5617 15.6667 67.3784 12.5167 69.0117 9.65C70.6451 6.78333 72.8784 4.53333 75.7117 2.9C78.5784 1.23333 81.7617 0.399997 85.2617 0.399997C88.7617 0.399997 91.9284 1.23333 94.7617 2.9C97.6284 4.53333 99.8784 6.78333 101.512 9.65C103.145 12.5167 103.962 15.6667 103.962 19.1C103.962 22.5333 103.145 25.6833 101.512 28.55C99.8784 31.4167 97.6284 33.6833 94.7617 35.35C91.9284 36.9833 88.7617 37.8 85.2617 37.8ZM85.2617 31.4C87.4617 31.4 89.4784 30.8833 91.3117 29.85C93.1451 28.8167 94.5784 27.3667 95.6117 25.5C96.6784 23.6333 97.2117 21.5 97.2117 19.1C97.2117 16.7 96.6784 14.5667 95.6117 12.7C94.5784 10.8333 93.1451 9.38333 91.3117 8.35C89.4784 7.31667 87.4617 6.8 85.2617 6.8C83.0617 6.8 81.0451 7.31667 79.2117 8.35C77.4117 9.38333 75.9784 10.8333 74.9117 12.7C73.8784 14.5667 73.3617 16.7 73.3617 19.1C73.3617 21.5 73.8784 23.6333 74.9117 25.5C75.9784 27.3667 77.4117 28.8167 79.2117 29.85C81.0451 30.8833 83.0617 31.4 85.2617 31.4ZM110.354 1.2H133.054V7.6H117.104V15.9H131.454V22.3H117.104V30.6H133.054V37H110.354V1.2ZM139.993 1.2H148.693L158.193 26.35H158.593L168.093 1.2H176.843V37H170.143V19.35L170.543 13.4H170.143L161.043 37H155.793L146.643 13.4H146.243L146.643 19.35V37H139.993V1.2ZM212.704 37.8C209.238 37.8 206.071 36.9833 203.204 35.35C200.338 33.6833 198.071 31.4333 196.404 28.6C194.771 25.7333 193.954 22.5667 193.954 19.1C193.954 15.6333 194.771 12.4833 196.404 9.65C198.071 6.78333 200.338 4.53333 203.204 2.9C206.071 1.23333 209.238 0.399997 212.704 0.399997C218.104 0.399997 222.571 2.35 226.104 6.25L221.354 10.85C219.054 8.15 216.188 6.8 212.754 6.8C210.521 6.8 208.488 7.31667 206.654 8.35C204.821 9.35 203.371 10.7833 202.304 12.65C201.271 14.5167 200.754 16.6667 200.754 19.1C200.754 21.5333 201.271 23.6833 202.304 25.55C203.371 27.4167 204.821 28.8667 206.654 29.9C208.488 30.9 210.521 31.4 212.754 31.4C216.521 31.4 219.671 29.8333 222.204 26.7L227.004 31.25C225.238 33.3833 223.138 35.0167 220.704 36.15C218.304 37.25 215.638 37.8 212.704 37.8ZM231.866 1.2H238.416V10.25L238.016 14.7H238.416C239.149 13.5 240.216 12.5333 241.616 11.8C243.016 11.0667 244.533 10.7 246.166 10.7C249.266 10.7 251.633 11.6333 253.266 13.5C254.933 15.3333 255.766 17.8833 255.766 21.15V37H249.216V21.95C249.216 20.3167 248.766 19.05 247.866 18.15C246.999 17.25 245.833 16.8 244.366 16.8C242.633 16.8 241.199 17.5 240.066 18.9C238.966 20.3 238.416 22.0167 238.416 24.05V37H231.866V1.2ZM269.5 37.8C266.8 37.8 264.583 37.0167 262.85 35.45C261.117 33.85 260.25 31.7667 260.25 29.2C260.25 27.5 260.7 26 261.6 24.7C262.5 23.4 263.733 22.4 265.3 21.7C266.867 21 268.6 20.65 270.5 20.65C273.133 20.65 275.383 21.0333 277.25 21.8V20.7C277.25 19.3 276.717 18.1667 275.65 17.3C274.617 16.4333 273.217 16 271.45 16C270.25 16 269.083 16.2833 267.95 16.85C266.85 17.3833 265.933 18.1 265.2 19L261 15.7C262.233 14.1 263.783 12.8667 265.65 12C267.517 11.1333 269.55 10.7 271.75 10.7C275.65 10.7 278.617 11.6 280.65 13.4C282.683 15.2 283.7 17.8333 283.7 21.3V37H277.25V34.4H276.85C276.083 35.4 275.067 36.2167 273.8 36.85C272.567 37.4833 271.133 37.8 269.5 37.8ZM271.05 32.7C272.95 32.7 274.45 32.1 275.55 30.9C276.683 29.6667 277.25 28.2333 277.25 26.6C275.55 25.8 273.767 25.4 271.9 25.4C268.5 25.4 266.8 26.6667 266.8 29.2C266.8 30.2333 267.167 31.0833 267.9 31.75C268.633 32.3833 269.683 32.7 271.05 32.7ZM289.527 11.5H295.677V14.6H296.077C296.777 13.5 297.794 12.5833 299.127 11.85C300.461 11.0833 301.994 10.7 303.727 10.7C306.027 10.7 308.111 11.2833 309.977 12.45C311.877 13.5833 313.361 15.1833 314.427 17.25C315.494 19.3167 316.027 21.65 316.027 24.25C316.027 26.8833 315.494 29.2333 314.427 31.3C313.361 33.3333 311.877 34.9333 309.977 36.1C308.111 37.2333 306.027 37.8 303.727 37.8C301.994 37.8 300.444 37.4333 299.077 36.7C297.744 35.9667 296.744 35.05 296.077 33.95H295.677L296.077 37.55V47.8H289.527V11.5ZM302.577 31.75C303.811 31.75 304.961 31.4333 306.027 30.8C307.094 30.1667 307.944 29.2833 308.577 28.15C309.211 27.0167 309.527 25.7167 309.527 24.25C309.527 22.7833 309.211 21.4833 308.577 20.35C307.944 19.2167 307.094 18.35 306.027 17.75C304.961 17.1167 303.811 16.8 302.577 16.8C301.377 16.8 300.244 17.1167 299.177 17.75C298.111 18.35 297.261 19.2167 296.627 20.35C295.994 21.4833 295.677 22.7833 295.677 24.25C295.677 25.7167 295.994 27.0167 296.627 28.15C297.261 29.2833 298.111 30.1667 299.177 30.8C300.244 31.4333 301.377 31.75 302.577 31.75ZM331.198 37.4C329.932 37.4 328.765 37.2167 327.698 36.85C326.632 36.45 325.765 35.9167 325.098 35.25C323.532 33.75 322.748 31.6167 322.748 28.85V17.1H318.298V11.5H322.748V4.3H329.298V11.5H335.548V17.1H329.298V27.65C329.298 28.95 329.582 29.8833 330.148 30.45C330.615 30.9833 331.415 31.25 332.548 31.25C333.182 31.25 333.698 31.1667 334.098 31C334.532 30.8333 335.082 30.55 335.748 30.15V36.55C334.315 37.1167 332.798 37.4 331.198 37.4ZM352.068 37.8C349.535 37.8 347.251 37.2167 345.218 36.05C343.185 34.8833 341.585 33.2833 340.418 31.25C339.285 29.1833 338.718 26.8667 338.718 24.3C338.718 21.8667 339.285 19.6167 340.418 17.55C341.551 15.45 343.118 13.7833 345.118 12.55C347.118 11.3167 349.351 10.7 351.818 10.7C354.451 10.7 356.718 11.2667 358.618 12.4C360.518 13.5333 361.951 15.0833 362.918 17.05C363.918 19.0167 364.418 21.2 364.418 23.6C364.418 24.3667 364.368 25.1 364.268 25.8H345.118C345.451 27.8333 346.251 29.3833 347.518 30.45C348.818 31.4833 350.368 32 352.168 32C353.668 32 354.951 31.6833 356.018 31.05C357.118 30.3833 357.985 29.5 358.618 28.4L363.918 31C361.318 35.5333 357.368 37.8 352.068 37.8ZM358.118 21.15C358.051 20.35 357.751 19.5667 357.218 18.8C356.718 18 356.001 17.35 355.068 16.85C354.168 16.3167 353.101 16.05 351.868 16.05C350.301 16.05 348.951 16.5167 347.818 17.45C346.718 18.35 345.918 19.5833 345.418 21.15H358.118ZM369.464 11.5H375.614V14.9H376.014C376.647 13.7 377.63 12.7167 378.964 11.95C380.297 11.15 381.764 10.75 383.364 10.75C384.53 10.75 385.597 10.9333 386.564 11.3V17.85C385.664 17.5167 384.897 17.2833 384.264 17.15C383.664 16.9833 383.014 16.9 382.314 16.9C380.38 16.9 378.847 17.6 377.714 19C376.58 20.4 376.014 22.1667 376.014 24.3V37H369.464V11.5Z" fill="#646464"/>
</svg>
